<svg xmlns="http://www.w3.org/2000/svg" viewBox="0 0 64 64" role="img" aria-label="NoteNest">
  <defs>
    <linearGradient id="g" x1="0" y1="0" x2="1" y2="1">
      <stop offset="0" stop-color="#1E7A7A"/>
      <stop offset="1" stop-color="#6CA9E4"/>
    </linearGradient>
  </defs>
  <rect x="4" y="4" width="56" height="56" rx="16" fill="url(#g)"/>
  <path d="M20 21.5c0-1.38 1.12-2.5 2.5-2.5h8.5c3.35 0 5.98 0.89 8 2.64V42c-2.02-1.75-4.65-2.64-8-2.64h-8.5A2.5 2.5 0 0 1 20 36.86V21.5zm24 0c0-1.38-1.12-2.5-2.5-2.5H33c-3.35 0-5.98 0.89-8 2.64V42c2.02-1.75 4.65-2.64 8-2.64h8.5A2.5 2.5 0 0 0 44 36.86V21.5z" fill="#ffffff"/>
  <rect x="31" y="20" width="2" height="24" rx="1" fill="#DDF4FF"/>
</svg>
